<?xml version="1.0" encoding="UTF-8"?>
<svg version="1.1" viewBox="0 0 2048 777" width="1280" height="500" xmlns="http://www.w3.org/2000/svg">
<path transform="translate(779,6)" d="m0 0h2v25l-4 16-7 17-3 6h48l6 1v14l18-2 14-1h14l-6 8-10 9-16 12-13 9v51l6-1 9-15 14-22 16-26 14-23 8-11 2-2 4-1h82l-1 4-13 21-9 14-12 19-15 24-12 19-14 22-11 18 2 6 23 34 18 27 29 43 22 33 4 5v3h-90l-8-9-17-26-42-63-7-10-3-2v109l-1 1h-77l-13 9-21 11-22 8-15 4-26 5-32 3h-25l-25-4-12-6-5-4-15-2h-14l-10 19-6 14v2l30 4 13-1 28-5 31-2h17l32 2 29 6 22 7v3l-19 7-24 7-25 5-18 2-18-1-24-4-24-9-19-11-11-3-17-2h-6l-8 18v2l9 3 21 2 21 4 24 6 24 7 22 7 28 8 19 7 7 4v2h-19l-45-5-30-6-23-8-11-5-11-6-10-7-8-4-13-2h-8l-7 17-11 34 28-3h20l19 3 55 15 69 23 5 1 24 1 7 1-3 3-15 7-20 6-23 4h-30l-18-2-19-4-15-5-9-4h-3l-1 6 35 11 38 9 23 6 2 1v2l-12 4-35 5h-20l-26-4-15-4h-5l-6 11v3l22 4 22 6 26 9 27 13 9 6-1 2-45-4-22-3-40-7-15-3-5 1-11 12-7 6 14-1 12-1h27l25 3 26 6 19 6 1 3-66 9-28 3-10 8-11 10-13 8-19 9 2 13 4 16v5h-3l-6-21-2-12h-16l-13-3h-11l2 24v25l-1 9-2-4-1-37-2-17-1-3h-4l-2 6-7 7-12 7-19 8-29 9-24 6h-2l1-3 11-9 10-8 19-12 25-11 12-2 18-1 3-1-1-12-16 4-26 3-18 13-16 10-24 14-12 6-2-1 8-10 12-14 8-7 9-8 6-4-1-2-9-3h-9l-14 7-25 6-4-1 5-5 9-8 8-6v-3l-6-1-19 8-15 4h-28v-3l17-8 13-10 16-16 8-7 12-11 14-11v-4l-16-8-7 1-10 7-24 13-9 5-3-1 5-6 8-7 7-7 11-9 4-4-2-4-8-6-9 1-17 4-17 2h-22l2-4 13-11 16-12 7-4-1-4-4-6-4-5-7 1-12 2-19 1-16-2-18-5v-3l9-7 16-9 19-7 16-5 22-14 12-5 16-4 21-2h18l8 1-10-14-3-3v-2l-3-1h-13l-12 2-8 5-8 7-14 8-12 5-17 4-17 2h-11l-21-3-25-5-12-2v-3l21-7 25-8 25-9 23-6 6-1h20l16 3 6 2 23 1-8-11-9-10-7-8-8-8-7-1-14 6-15 10-12 7-18 6-16 2h-10l-20-3-16-5-12-7-11-10v-3l37-2 44-3 33-1 9-1 20-1-8-10-8-7-9-8h-28l-19 6-38 9-13 2h-14l-27-4-28-4-15-1 2-4 10-7 16-9 15-5 13-2h29l16 3 23 8 7 3h42l-2-5-10-9-11-9-13-11-30-23-2-1h-19l-17 9-18 6-11 2-11 1h-17l-16-3-25-10-15-8v-10l27-8 11-2 13-1h11l17 1 15 3 19 7 13 6 10 1h3l-5-5-21-14-21-12-16-10-14-12-11-15-7-15-6-18-1-9 4 2 16 16 11 14 13 20 10 17 6 10 26 14 16 11 15 11 4 2-2-10-10-25-9-21-17-28-14-21-9-16-3-9v-5l9 3 11 8 10 11 9 16 5 11 8 25 8 35 9 29 5 6 17 13 12 9 2 1-3-13-6-28-5-24-3-20v-39l3-26 4-23 8-33h2v49l2 19 6 28 4 18v12l-5 23-2 23v35l2 5 14 12 11 9 10 9 2 1-6-54-1-13-1-31 2-18 4-15 8-17 10-16 5-7h2l-4 18-2 24v61l-3 19-8 22-2 11v20l5 6 8 7 7 8 16 16 7 8 6 6 2-39-4-14-7-22-7-32-3-29v-48l1-13 4 1 10 11 10 15 7 14 6 16 4 18 1 9v26l3 5 7 7 3 1-1-37v-66l2-17 2-7 3 3 3 14h5l7 10 6 9 10 13 11 13 2 1 1-18 2-2 5 8 3 10 1 15 3 7 12 14 5 6 3 1 2-11-1-7-8-16-15-29-9-21-8-24-2-12v-10l3-11 4-6 3 2 6 21 8 20 16 27 12 19 11 18 12 20 12 23 11 26 4 10 16 11h2l11-24-2-5-6-10-7-14-7-11-13-15-9-12-7-11-10-19-9-27-5-24-2-15v-43l3-25 4 2 10 26 5 16 9 39 10 48 7 28 5 13 8 15 7 18 10 18 3 2 2-5 16-30 3-5-1-7-9-20-7-11-8-10-7-7-8-10-10-19-6-19-1-8v-26l2-12 5-17 9-20 10-17 5-4 4 10 10 32 5 26 2 19v31l-2 23-3 18 1 8 9 25 3 8 8-11 9-15 14-22 13-18 4-6-1-9-5-16-7-9-8-8-9-13-4-8-5-15-5-19-4-17-5-15-8-16-6-9-2-5 5 2 16 9 12 9 6 5 8 11 8 16 8 29 4 23 3 31 3 15 4-2 9-11 11-13 8-10 6-8v-9l-3-14-9-24-10-18-9-14-3-9v-41l-2-18-8-30-5-15 1-3 10 14 14 21 10 18 8 17 6 18 4 16 1 8 1 48 1 26 5-5 11-12 7-8 10-11 2-10 2-21v-48l3-24 6-17 7-14 9-11 12-10h3v11l-9 27-9 20-10 27-3 12-4 25-2 9-1 15 8-7 5-6 12-12 7-8 15-14 11-10 5-4 9-27 11-27 12-21 8-12zm-37 88-11 10-8 7-12 11-10 10v2h-2l-7 9 1 2 15-6 14-10 17-13 5-4v-18zm-40 51-12 4-6 3-12 12-9 11-9 10-9 11-11 13-10 13-9 11-1 4 7-1 22-7 21-7 10-6 12-9 19-12 22-11 15-6 2-2v-30l-24-1zm39 71-31 7-12 2-25 3-13 2-16 1-9 2-14 5-10 3-8 7-12 17-7 10-3 6 7-1 36-11 40-13 27-7 38-11 14-5 2-2v-10l-1-5zm1 39-18 11-17 9-25 9-20 4h-35l-19-3-20-1-10 1-7 9-15 23-12 20v3l7-1 17-5 11-6 14-8 14-7 16-5 16-4 18-2 75-5 10-1 3-2v-39zm-1 51-17 9-16 9-12 6-27 9-31 6h-29l-25-5-3-1h-16l-17 4-9 4-7 10-11 21v2l28 3h13l31-9 52-13 24-4 9-1 28-1 18 1 16 3h4l1-11v-41zm-387 70-2 12-2 13v8l9 10 4 1 3-10 2-9-1-7-9-15zm84 3-1 3v14l9 15 8 16 2 2 5-8 6-12-1-4-14-12-11-13zm40 32v18l-2 18v7l4 1 8-17 7-17-4-4-10-6zm-95 7-3 16v6l5 6 4-1 5-14-1-6-8-7zm-79 7-5 36v6l11 14 10 13 4 1 3-13 4-26-1-5-7-7-9-11-7-8zm125 21-5 15-6 19v6l6 11h3l9-19 7-16 4-9v-5l-13-2zm-95 11-2 6-4 23-2 10 9 4 11 4h3l3-26v-7l-7-7-9-7zm140 4-4 9-6 16-7 16-5 10 1 4 4 2h3l9-29 8-24v-4zm-108 22-8 16-5 6 1 3 14 7h2l4-22v-6l-6-4zm40 22-9 12-9 8 2 4 15 10 3 1 3-5 8-19 1-6-10-4zm81 0-17 3-3 3-7 28 1 2 6-4 5-4 11-7 23-10-1-5-5-5-3-1zm-39 14-6 9-10 16-2 5 17 4 5-1 3-9 4-20-9-4zm-169 10-10 6-18 8-3 3 6 3 6 1h12l24-7 5-2v-2l-16-8zm241 6-8 6-8 7 1 2 18 3 7-1 6-4-1-4-8-7-4-2zm-208 10-7 11-2 3 9 3 6 1 12-8v-4l-15-6zm24 9-6 7-2 6 8 4 19 8 13 6h3l-1-5-5-11-4-8-8-3-14-4zm88 1-13 14-7 4-8 7-9 10-1 4 9 6 11 6 5-1 8-7 8-12 11-16 6-9-1-3-11-3zm-60 7 5 10 7 15 5 5 3-1 8-10 9-12v-5h-11l-19-2zm120 7-21 21-11 9v3h8l14-5 14-13 9-7-1-4-9-4zm-41 36-12 6-1 2 10 3h5v-11zm15-1-7 1-1 7v8l4-2 9-11-1-2zm-24 14-7 3-10 6-20 7-1 4 5 16 2 5 4 2h7l6-4 11-10 7-9 7-10-1-7-3-2zm-95 9-13 17-5 7v3l5-1 11-8 13-9 5-5-7-3zm39 7-18 18-1 3 6 2 30 3 3-2v-8l-4-14-3-2zm76 24-4 3 1 14 1 5 6-2 17-9v-2l-14-7-2-2zm-10 6-12 3-10 6-13 8v8l2 10 7 1 9-4 16-9 4-3-1-18z" fill="#438E08"/>
<path transform="translate(755,379)" d="m0 0h15l6 2 10 13 10 14 12 16 13 18 14 19 13 18 14 19 10 14 14 19 9 12 6 7 6-5 20-28 28-38 10-14 14-19 9-12 14-19 13-18 12-16 1-1h30v294h-76l-1-114h-3l-2 4-12 17-13 18-11 16-11 15-9 13-12 17-6 7-6-5-15-22-14-19-12-17-14-20-14-19-3-4-3-1v113l-1 1h-75l-1-3v-279l1-12z" fill="#428E08"/>
<path transform="translate(1666,70)" d="m0 0h63l9 1 1 14 1 95h84l2-1 1-108 1-1h71l5 1v290l-2 1h-74l-1-1-1-109-87-1v92l-1 18-2 1h-73l-1-1v-290z" fill="#428E08"/>
<path transform="translate(1025,70)" d="m0 0h103l19 1 20 4 15 6 11 6 11 8 10 9 10 13 7 14 5 16 1 6v26l-3 11-5 13-7 12-11 13-13 10-9 6h-2l7 12 29 43 40 60v3h-87l-10-15-12-19-14-23-17-28-13-21-11-17-3-2-1 124-2 1h-72l-2-1-1-5v-285zm70 69v59l1 1h38l10-3 8-6 5-6 3-9v-14l-5-10-8-8-10-4z" fill="#428E08"/>
<path transform="translate(1492,382)" d="m0 0h84l23 1 16 3 16 6 14 7 12 9 10 9 10 13 8 16 4 16 1 7v18l-4 17-5 12-8 14-6 7-8 7-11 8-8 5 4 7 10 15 17 25 46 69v1h-88l-9-12-10-17-14-22-10-17-15-24-11-18-9-14-2-1-1 124-1 1h-75l-1-14v-274l1-3zm56 69v60h42l9-4 8-7 5-9 1-3v-14l-4-9-8-9-9-4-4-1z" fill="#428E08"/>
<path transform="translate(1872,378)" d="m0 0h14l13 1 10 19 11 25 19 41 17 37 15 33 18 39 19 41 9 20 11 24 5 12v4h-81l-4-6-10-25-1-2-11-1h-101l-3 9-10 22-4 3h-80l3-9 17-37 13-28 16-35 30-65 11-24 12-26 16-35 11-24 6-11 1-1zm9 136-4 6-20 46-6 15v4h58l2-1-1-7-26-60z" fill="#428E08"/>
<path transform="translate(1512,66)" d="m0 0h23l19 3 16 5 17 9 13 11 7 8 6 11-2 5-3 1-2 4-10 9-21 21-5 3-8-8-14-8-14-4h-18l-11 4-5 4-3 9 1 7 4 5 10 6 30 12 18 8 19 10 16 12 13 13 7 11 6 13 3 12 1 9v12l-3 16-6 15-9 13-7 8-10 8-15 9-15 6-17 5-13 2h-32l-17-3-23-7-17-8-13-9-13-13-5-8 1-7 18-18 8-7 16-16 4 2 8 8 14 9 21 7 8 1h11l12-2 12-6 4-6v-8l-4-8-13-10-23-12-20-9-16-8-15-9-13-11-9-10-8-14-4-12-2-15v-12l3-15 5-12 7-11 11-12 11-9 14-8 16-6 11-3z" fill="#428E08"/>
<path transform="translate(1346,382)" d="m0 0h76l16 1 1 1v68l-1 1-69 1-1 219-1 1h-75l-1-1-1-219-68-1-1-1v-68l1-1z" fill="#428E08"/>
<path transform="translate(197,164)" d="m0 0h2v49l2 19 6 28 4 18v12l-5 23-2 23v35l2 5 14 12 11 9 10 9 2 1-6-54-1-13-1-31 2-18 4-15 8-17 10-16 5-7h2l-4 18-2 24v61l-3 19-8 22-2 11v20l5 6 8 7 7 8 16 16 7 8 6 6 2-33 2-8 3 4v14l-3 22v6l11 14 9 12v1h-7l-12-16-2-4-3-1h-13l-12 2-8 5-8 7-14 8-12 5-17 4-17 2h-11l-21-3-25-5-12-2v-3l21-7 25-8 25-9 23-6 6-1h20l16 3 6 2 23 1-8-11-9-10-7-8-8-8-7-1-14 6-15 10-12 7-18 6-16 2h-10l-20-3-16-5-12-7-11-10v-3l37-2 44-3 33-1 9-1 20-1-8-10-8-7-9-8h-28l-19 6-38 9-13 2h-14l-27-4-28-4-15-1 2-4 10-7 16-9 15-5 13-2h29l16 3 23 8 7 3h42l-2-5-10-9-11-9-13-11-30-23-2-1h-19l-17 9-18 6-11 2-11 1h-17l-16-3-25-10-15-8v-10l27-8 11-2 13-1h11l17 1 15 3 19 7 13 6 10 1h3l-5-5-21-14-21-12-16-10-14-12-11-15-7-15-6-18-1-9 4 2 16 16 11 14 13 20 10 17 6 10 26 14 16 11 15 11 4 2-2-10-10-25-9-21-17-28-14-21-9-16-3-9v-5l9 3 11 8 10 11 9 16 5 11 8 25 8 35 9 29 5 6 17 13 12 9 2 1-3-13-6-28-5-24-3-20v-39l3-26 4-23z" fill="#458F09"/>
<path transform="translate(1297,70)" d="m0 0h68l7 1v290l-1 1h-74l-1-1v-290z" fill="#428E08"/>
<path transform="translate(1958,70)" d="m0 0h59l16 1v289l-2 2h-73l-1-2v-289z" fill="#438E08"/>
<path transform="translate(1123,382)" d="m0 0h27l37 1v291h-75l-1-1v-290z" fill="#428E08"/>
<path transform="translate(286,492)" d="m0 0h27v2h9l2 1 1-2 4 4 20 7v-6h1v7h3l3 3 14 7 1-4v6l5 2 9 6h3l3 5-4 1-3 3-4 1v2l-7 1 3 5v2l-7 6-12 2-16-3-14-7-3-1v-2l-11-3-14-5-5-2-1-2-6-3-9-7-6-5-1-7 2-2 14-1-3-4v-2l-6 1-13-2v-2z" fill="#759A22"/>
<path transform="translate(577,18)" d="m0 0 4 4 13 19 10 15 14 27 7 19 5 20 1 8 1 48 1 27-4 4-2 3-2-15-7-21-8-18-15-24-3-9v-41l-2-18-8-30-5-15z" fill="#749A21"/>
<path transform="translate(51,313)" d="m0 0h11l17 1 15 3 19 7 16 7v1l-8 1h-34l-30-1 26 3 46 1-4 4-17 8-17 5-18 2h-17l-16-3-25-10-15-8v-10l27-8 11-2z" fill="#438E08"/>
<path transform="translate(564,512)" d="m0 0 10 2 31 9 29 10 27 9 5 1 24 1 7 1-3 3-15 7-20 6-23 4h-30l-18-2-15-3 1-4 1-1h6l-1-1h-2l1-4-7-5-2-10 1-5 3-1 27 8 10 2-19-7-5-3v-2l-4-1-9-7-10-6z" fill="#749921"/>
<path transform="translate(264,236)" d="m0 0h2l-4 18-2 24v61l-3 19-8 22-2 11-1 16h-3l-6-54-1-13-1-31 2-18 4-15 8-17 10-16z" fill="#438E09"/>
<path transform="translate(506,138)" d="m0 0 2 1 4 12-1 2h-2l-1 17-7 22-6 24-1 6v16l2 14 3 15 5 13 3 6 1 7 2 5-7-6-10-12-10-19-6-19-1-8v-26l2-12 5-17 9-20 10-17z" fill="#84A429"/>
<path transform="translate(208,476)" d="m0 0h35l4 1v2l-24 5-13 3 17-2 21-3h9l1 3-13 8-13 6-14 4-12 2-11 1h-11l-21-3-25-5-12-2v-3l21-7 16-5 3 1h-2v2h2v2h14l8-3 7-4z" fill="#448E09"/>
<path transform="translate(324,493)" d="m0 0 3 2 2 2 20 7v-6h1v7h3l3 3 14 7 1-4v6l5 2 3 2-2 4-7 2-1 4-7 2-1 5h-2v2l-8 1-9-1-9-3-9-5-5-5-9-6-7-7 1-4 4-1v-8l4-3 1-3 2-1h7l2 1z" fill="#83A328"/>
<path transform="translate(176,429)" d="m0 0h6l-1 3h-2l-2 5-4 5 3 1 12 1 4 1 7 1 5 3 5 1 3-4 13-4 4-1-4 4-14 8-18 6-16 2h-10l-20-3-16-5-12-7-11-10v-3l37-2z" fill="#448E09"/>
<path transform="translate(698,354)" d="m0 0 26 1 16 3 5 2-5 4-10 7-21 11-19 7-2-1 5-6 2-3h2v-3l-8 1-15 4h-6l-7-4v-2l-5-2-5-5-7-4-4-1v-2l29-5 9-1z" fill="#84A429"/>
<path transform="translate(300,421)" d="m0 0 3 4v14l-3 22v6l11 14 9 12v1h-7l-12-16-2-4-3-1h-13l-12 2-8 5-4 4-5-1-12 1-28 4-5-1 3-2 24-5 11-1v-2h-39l-13 3-8 5-7 2h-11l-3-1v-2h-2v-2l8-4 25-9 23-6 6-1h20l16 3 6 2 23 1 1-5 4-1 2-33z" fill="#2B7210"/>
<path transform="translate(409,689)" d="m0 0h1l1 10h10l1 3-10 1 2 24v25l-1 9-2-4-1-37-2-17-1-3h-4l-2 6-7 7-12 7-19 8-29 9-24 6h-2l1-3 11-9 10-8 19-12 25-11 12-2 18-1 3-1v-6z" fill="#448E09"/>
<path transform="translate(603,60)" d="m0 0 5 3 12 25 6 18 4 16 1 8v36l-1 10-3 3-4-1-1 3-3-7v-6-2l-1-7 2-1 1 5-1 2h2l1 3 3-4-5-11-2-8-3-7-2 2-5-16-2-9-1-10 1-2h-2v-7h2l1-13-6-18z" fill="#448E09"/>
<path transform="translate(94,203)" d="m0 0 9 3 11 8 10 11 9 16 5 11 8 25 4 18-1 7-4-2-8-18-17-28-14-21-9-16-3-9z" fill="#448E09"/>
<path transform="translate(37,221)" d="m0 0 4 2 16 16 11 14 13 20 10 17 6 10 26 14 16 11 5 5-5 1-5-5-21-14-21-12-16-10-14-12-11-15-7-15-6-18z" fill="#468F0A"/>
<path transform="translate(853,82)" d="m0 0h14l-6 8-10 9-16 12-13 9v51l10 1 3 2-11 5-16 6-1-3h-2l-1-9-2-1v-2h14l4 1v-48l-21 10-13 4v-4l4-3 1-3h2v-2h2l2-4 12-8 4-5 6-5h3v-2l11-5 17-6 11-4 1-2h-11z" fill="#759A22"/>
<path transform="translate(252,422)" d="m0 0 3 1v2h2v3l-10 4-12 6-4 3-6 2-13 4-3 4-9-3-1-1-9-1-2-1-17-2 6-7 2-4 3-3 7-1 33-1 9-1h21z" fill="#276F10"/>
<path transform="translate(434,160)" d="m0 0 4 2 10 26 5 16 9 39 6 28v5l-2-3-3-13-4-16 1-2-2-1-4-9-7-4-6-7v-3l-3-1-4-8-1 1-1 18h-1v-43z" fill="#84A429"/>
<path transform="translate(507,145)" d="m0 0 4 3 1 5h-3l-1 17-7 22-6 24-1 6v16l2 14 3 15 5 13 3 6 1 7 2 5-7-6-10-12-3-9-6-12-3-10v-6l-1-5h2l1-8 3-11 4-6 2-7 4-11 3-9 3-13 3-12 1-13z" fill="#759A22"/>
<path transform="translate(596,521)" d="m0 0 12 3 40 14 18 5 24 1 7 1-3 3-15 7-20 6-23 4h-30v-1l14-1 9-2 10-5 2-3 17-3h17l2-4h-19l-22-5-8-2-14-6-11-7-6-3z" fill="#84A429"/>
<path transform="translate(585,44)" d="m0 0 2 1 5 18 2 7 1 6-1 2h2v4h2l3 11 1 6 2 11 3 12v9l2 3 3 17v3l2 2v2l4 11v5l-2-3-8-16-10-16-5-10-1-4v-41l-2-18-5-19z" fill="#84A429"/>
<path transform="translate(779,6)" d="m0 0h2v25l-4 16-3 8-3-2-6-6-7-2h-2l-1 3-1-2 13-23 8-12z" fill="#84A429"/>
<path transform="translate(434,163)" d="m0 0h1l2 11-1 8-1 4 3 11 1 4 5 9 3 2v3l5 2 3 5 4 15 2 2 7 32v5l-2-3-3-13-4-16 1-2-2-1-4-9-7-4-6-7v-3l-3-1-4-8-1 1-1 18h-1v-43l2-19z" fill="#759A22"/>
<path transform="translate(734,358)" d="m0 0 10 1 1 2-15 10-21 11-19 7-2-1 5-6 2-3h2v-3l-5-1 4-2 23-8z" fill="#749A21"/>
<path transform="translate(734,308)" d="m0 0 3 1-13 7-16 9-12 6-27 9-24 5-4-1 10-4 6-2 5-3h2l1-3 14-4 13-3 4-3 20-8 7-1z" fill="#769A22"/>
<path transform="translate(853,82)" d="m0 0h14l-6 8-10 9-16 12-13 9v51l10 1 3 2-11 5-16 6-1-3h-2l-1-9-2-1v-2h14l4 1v-48h-4l1-4 7-6 7-3 10-8 14-10 5-4 2-4h-11z" fill="#769A22"/>
<path transform="translate(670,423)" d="m0 0 8 1 26 8v3l-19 7-24 7-13 3-4-1 7-4 10-6 15-3 1-3 3-2 1-3h-2l-4-4-5-2z" fill="#759A22"/>
<path transform="translate(355,631)" d="m0 0 13 1 5 2v6l-15 15-14-1-3-1 2-7 5-6h2l2-6z" fill="#266F10"/>
<path transform="translate(645,360)" d="m0 0 11 1 8 1 1 3 4 2 7 4 3 3 6 3-2 2-9 2h-6l-7-4v-2l-5-2-5-5-7-4-4-1v-2z" fill="#759A22"/>
<path transform="translate(248,524)" d="m0 0h12l15 4 2 1v2l-11 6-11 5-7 2h-8l-2-1v-3l11-3 1-1z" fill="#276F10"/>
<path transform="translate(290,354)" d="m0 0h1l2 9 2 6 2 3-1 9-1 2 3 1v6l2 3 1 6h2l1 9 1 5-5 1-6-13-6-23-1-6v-9z" fill="#749921"/>
<path transform="translate(761,227)" d="m0 0h3l-1 5-9 13-8 8-1 2-11 6-12 7v-3l4-3h2l1-6 7-7 7-6 4-1 1-4 3-3 4-6z" fill="#769A22"/>
<path transform="translate(744,147)" d="m0 0h1v29l19-4h5l2 4-8 3-12 3-9 2-11 3-4 3-10 3-7 3-8 1 3-3 22-11 15-6 1-1z" fill="#779B23"/>
<path transform="translate(242,407)" d="m0 0h4l2 5 4 5 8 7 7 8 16 16 7 8 5 6-5 4-8-10-12-14-11-11-6-2 4-1v-3h-2v-2h-2l-2 2-8-10-2-2 3-1-2-2z" fill="#49900C"/>
<path transform="translate(289,275)" d="m0 0 5 5 9 14 6 12 6 16 3 12-1 3-4-8-8-15-4-6v-2h-2l-3-9-3-7-3-11z" fill="#83A328"/>
<path transform="translate(353,474)" d="m0 0 5 2 7 5v6l-6 12-5 6h-4v-18l1-9z" fill="#297110"/>
<path transform="translate(375,489)" d="m0 0 11 6-1 6-4 12 1 8-8-2-3-2v-12l2-12z" fill="#28710F"/>
<path transform="translate(476,667)" d="m0 0 4 2-3 1-1 2-3 1v4h8l-1 4-20 10-4-1-1-2 3-2-2-5v-3l18-9h2z" fill="#276F10"/>
<path transform="translate(443,686)" d="m0 0h4l1 5v8l-14 3-5 1h-6l-2-2v-3l11-6z" fill="#287010"/>
<path transform="translate(765,33)" d="m0 0h6l5 8v9l-2 5-3-2-6-6-7-2h-2l-1 3-1-2 5-9z" fill="#759A22"/>
<path transform="translate(630,166)" d="m0 0h1l1 12 1 27-4 4-2 3-2-15-4-13v-3h2v-3l4 1 1-3h1z" fill="#719A20"/>
<path transform="translate(409,689)" d="m0 0h1l1 10h10l1 3-10 1 2 24v25l-1 9-2-4-1-37-2-17-1-3-8-1v-1l8-2v-6z" fill="#4D910E"/>
<path transform="translate(57,331)" d="m0 0 32 1h40l3 2-3 2h-46l-27-3z" fill="#256E10"/>
<path transform="translate(853,82)" d="m0 0h14l-6 8-10 9-16 12-13 9v52h-2v-49h-4l1-4 7-6 7-3 10-8 14-10 5-4 2-4h-11z" fill="#84A429"/>
<path transform="translate(489,619)" d="m0 0 9 3-2 4-9 10-7 6-3-1 1-7 1-3h2l1-4h2l1-4 3-1z" fill="#297110"/>
<path transform="translate(643,485)" d="m0 0 11 3 12 6v2h-19l-18-2 2-2h9l3-4z" fill="#769B22"/>
<path transform="translate(738,358)" d="m0 0 7 2-5 4-10 7-21 11-2-1 4-3h2l1-4 5-1v-2h2l1-2 4-3 9-2 5-3-2-1z" fill="#83A328"/>
<path transform="translate(97,301)" d="m0 0 6 2 20 11 16 11 5 5-5 1-5-5-21-14-15-9z" fill="#50920F"/>
<path transform="translate(264,236)" d="m0 0h2l-4 18-5 9-2-1v-5l-2-1 1-5z" fill="#337811"/>
<path transform="translate(692,429)" d="m0 0 9 2 4 2-3 3-30 10-13 3 3-3 10-3 21-7h3l-1-3 1-2z" fill="#84A429"/>
<path transform="translate(137,400)" d="m0 0h15l-3 3-6 2-25-1-7-1v-1l5-1z" fill="#256E10"/>
<path transform="translate(293,286)" d="m0 0 4 5 4 7 4 10 9 17 1 5-4-4-6-12-4-6v-2h-2l-3-9-3-7z" fill="#759A22"/>
<path transform="translate(331,455)" d="m0 0h2v8l-4 23-2 8h-2v-7l3-17 2-14z" fill="#377B11"/>
<path transform="translate(149,300)" d="m0 0h2l7 25 2 8-2 3-2-8-10-25v-2z" fill="#529310"/>
<path transform="translate(734,99)" d="m0 0v3l-13 12-8 7-11 11-1 2h-2l-2 4-3 2v-3l12-13 24-22z" fill="#5B9614"/>
<path transform="translate(722,315)" d="m0 0 2 1-16 9-12 6-20 7-3-1 5-3 10-3 11-4 20-11z" fill="#84A429"/>
<path transform="translate(434,163)" d="m0 0h1l2 11-1 8-3 6-1 17h-1v-20l2-19z" fill="#7A9D24"/>
<path transform="translate(577,18)" d="m0 0 4 4 12 17-1 2-4-4v-3l-3 2v4h-2l-6-19z" fill="#84A429"/>
<path transform="translate(643,228)" d="m0 0 3 1v2l-16 5-9 3h-2l-1-3z" fill="#639818"/>
<path transform="translate(324,701)" d="m0 0h2l-1 5-4 2-2 5-5 2-1 2h-4v-2h2v-2l3-3h2l2-4z" fill="#256E10"/>
<path transform="translate(413,727)" d="m0 0h1v25l-1 9-2-4v-26z" fill="#699B1B"/>
<path transform="translate(429,518)" d="m0 0h2l-1 7-5 8-2 4-4 1 1-5 2-4h2l1-5z" fill="#256E10"/>
<path transform="translate(543,177)" d="m0 0 2 3 8 24 6 11-1 2-6-9-6-16-3-11z" fill="#7A9D24"/>
<path transform="translate(233,401)" d="m0 0 8 5 3 5 2 2h-6l-8-8z" fill="#317711"/>
<path transform="translate(281,352)" d="m0 0 6 3-1 11-4-1-1-5z" fill="#2C7211"/>
<path transform="translate(741,253)" d="m0 0 4 2-11 6-12 7v-3l7-4 7-5h2v-2z" fill="#82A228"/>
<path transform="translate(668,167)" d="m0 0v3l-7 8-5 5-6 4 2-4 9-10z" fill="#549411"/>
<path transform="translate(654,489)" d="m0 0 5 1 7 4v2h-19v-1l11-1z" fill="#84A429"/>
<path transform="translate(323,699)" d="m0 0m-1 1m-1 1m-1 1m-1 1v3l-3 4h-2l-1 3h-2v2h-3l2-4z" fill="#4A900C"/>
<path transform="translate(627,580)" d="m0 0 10 2 2 1v2l-8 3-3-1 4-3v-2l-5-1z" fill="#799D23"/>
<path transform="translate(329,479)" d="m0 0 1 3-3 12h-2v-7l2-6z" fill="#3E7F13"/>
<path transform="translate(626,199)" d="m0 0 4 4 3 2-4 4-2 3z" fill="#799D24"/>
<path transform="translate(734,99)" d="m0 0v3l-12 11-2-2 10-9z" fill="#81A227"/>
<path transform="translate(457,237)" d="m0 0 4 2 1 4v8l-2-3-1-4 1-2-2-1z" fill="#779B23"/>
<path transform="translate(211,385)" d="m0 0 4 2 6 7 1 4-5-5-4-5-2-1z" fill="#2D7411"/>
<path transform="translate(853,82)" d="m0 0h14l-4 5-2-1 1-2h-11z" fill="#7A9D24"/>
<path transform="translate(591,652)" d="m0 0 9 2 4 2v2h-5l-1-2-7-3z" fill="#7EA026"/>
</svg>
